<svg width="100%" height="100%" viewBox="0 0 24 24" version="1.1" xmlns="http://www.w3.org/2000/svg" xmlns:xlink="http://www.w3.org/1999/xlink" xml:space="preserve" xmlns:serif="http://www.serif.com/" style="fill-rule:evenodd;clip-rule:evenodd;stroke-linejoin:round;stroke-miterlimit:2;"><g id="Icon"><path d="M22.414,2.094c-0.072,-0.245 -0.263,-0.436 -0.508,-0.508c0,-0 -6.388,-1.901 -11.644,3.354c-2.59,2.59 -5.285,6.829 -5.492,9.259c-0.019,0.22 0.06,0.438 0.217,0.594l4.22,4.22c0.156,0.157 0.374,0.236 0.594,0.217c2.43,-0.207 6.669,-2.902 9.259,-5.492c5.255,-5.256 3.354,-11.644 3.354,-11.644Zm-1.344,0.837c0.267,1.372 0.774,5.901 -3.071,9.746c-2.229,2.23 -5.76,4.625 -7.992,5.015c-0,-0 -3.699,-3.699 -3.699,-3.699c0.391,-2.232 2.785,-5.763 5.015,-7.992c3.845,-3.845 8.375,-3.338 9.746,-3.071l0.001,0.001Z" id="id_101" style="fill: rgb(145, 76, 53);"></path><path d="M18.005,5.995c-1.263,-1.263 -3.315,-1.263 -4.578,0c-1.263,1.263 -1.263,3.315 0,4.578c1.263,1.263 3.315,1.263 4.578,-0c1.263,-1.263 1.263,-3.315 -0,-4.578Zm-1.061,1.061c0.678,0.678 0.678,1.778 0,2.456c-0.678,0.678 -1.778,0.678 -2.456,0c-0.678,-0.678 -0.678,-1.778 -0,-2.456c0.678,-0.678 1.778,-0.678 2.456,-0Z" id="id_102" style="fill: rgb(143, 80, 59);"></path><path d="M13.805,16.27l-6.075,-6.075c-0.292,-0.292 -0.768,-0.292 -1.06,0c-0.293,0.293 -0.293,0.768 -0,1.061l6.074,6.074c0.293,0.293 0.768,0.293 1.061,0c0.292,-0.292 0.292,-0.768 -0,-1.06Z" id="id_103" style="fill: rgb(143, 79, 57);"></path><path d="M15.321,15.602c-0,-0 -0.151,1.653 -0.255,2.798c-0.038,0.418 -0.283,0.788 -0.652,0.987l-2.52,1.357c-0,0 -0,-2.261 -0,-2.261c-0,-0.414 -0.336,-0.75 -0.75,-0.75c-0.414,0 -0.75,0.336 -0.75,0.75l-0,3.517c-0,0.264 0.139,0.509 0.365,0.644c0.227,0.135 0.508,0.142 0.741,0.016c-0,0 2.286,-1.231 3.625,-1.952c0.813,-0.437 1.352,-1.253 1.435,-2.172c0.104,-1.145 0.255,-2.799 0.255,-2.799c0.037,-0.412 -0.267,-0.777 -0.679,-0.814c-0.413,-0.038 -0.778,0.266 -0.815,0.679Z" id="id_104" style="fill: rgb(145, 80, 58);"></path><path d="M8.263,7.185c-0,0 -1.654,0.151 -2.799,0.255c-0.919,0.083 -1.735,0.622 -2.172,1.435c-0.721,1.339 -1.952,3.625 -1.952,3.625c-0.126,0.233 -0.119,0.514 0.016,0.741c0.135,0.226 0.38,0.365 0.644,0.365l3.517,0c0.414,0 0.75,-0.336 0.75,-0.75c-0,-0.414 -0.336,-0.75 -0.75,-0.75l-2.261,0l1.357,-2.52c0.199,-0.369 0.569,-0.614 0.987,-0.652c1.145,-0.104 2.798,-0.255 2.798,-0.255c0.413,-0.037 0.717,-0.402 0.679,-0.815c-0.037,-0.412 -0.402,-0.716 -0.814,-0.679Z" id="id_105" style="fill: rgb(143, 77, 56);"></path><path d="M3.411,16.011l-1.59,1.59c-0.292,0.293 -0.292,0.768 0,1.061c0.293,0.292 0.768,0.292 1.061,-0l1.59,-1.59c0.293,-0.293 0.293,-0.768 -0,-1.061c-0.293,-0.293 -0.768,-0.293 -1.061,0Z" id="id_106" style="fill: rgb(143, 77, 54);"></path><path d="M5.17,17.77l-2.997,2.996c-0.293,0.293 -0.293,0.768 0,1.061c0.293,0.293 0.768,0.293 1.061,-0l2.996,-2.997c0.293,-0.292 0.293,-0.768 0,-1.06c-0.292,-0.293 -0.768,-0.293 -1.06,-0Z" id="id_107" style="fill: rgb(143, 74, 52);"></path><path d="M6.928,19.528l-1.59,1.59c-0.292,0.293 -0.292,0.768 0,1.061c0.293,0.292 0.768,0.292 1.061,-0l1.59,-1.59c0.293,-0.293 0.293,-0.768 -0,-1.061c-0.293,-0.293 -0.768,-0.293 -1.061,0Z" id="id_108" style="fill: rgb(136, 74, 57);"></path></g></svg>