<svg version="1.1" xmlns="http://www.w3.org/2000/svg" xmlns:xlink="http://www.w3.org/1999/xlink" x="0px" y="0px" width="512px" height="512px" viewBox="0 0 512 512" style="enable-background:new 0 0 512 512;" xml:space="preserve">
<g id="C_-_195_x2C__release_x2C__Box_x2C__launch_x2C__open_box_x2C__product">
	<g>
		<g>
			<path d="M338.927,454.142H113.771c-2.491,0-4.511-2.02-4.511-4.512V333.907c0-2.491,2.02-4.511,4.511-4.511h170.557
				l50.968-69.102c1.155-1.568,3.187-2.218,5.04-1.608c1.851,0.608,3.102,2.338,3.102,4.286V449.63
				C343.438,452.122,341.418,454.142,338.927,454.142z M118.282,445.118h216.133v-168.43l-44.179,59.896
				c-0.851,1.153-2.197,1.834-3.63,1.834H118.282V445.118z" id="id_101" style="fill: rgb(143, 79, 57);"></path>
		</g>
		<g>
			<path d="M400.492,454.142h-61.565c-2.492,0-4.512-2.02-4.512-4.512V262.973c0-1.989,1.303-3.743,3.206-4.318
				c1.905-0.575,3.961,0.163,5.062,1.82l45.833,68.922h11.977c2.492,0,4.512,2.02,4.512,4.511V449.63
				C405.004,452.122,402.984,454.142,400.492,454.142z M343.438,445.118h52.543V338.419h-9.883c-1.511,0-2.92-0.756-3.756-2.014
				l-38.904-58.502V445.118z" id="id_102" style="fill: rgb(135, 72, 51);"></path>
		</g>
		<g>
			<path d="M286.606,338.419H61.452c-1.703,0-3.26-0.958-4.027-2.478c-0.768-1.52-0.614-3.342,0.396-4.711l52.319-70.936
				c0.851-1.153,2.198-1.834,3.631-1.834h225.156c1.702,0,3.259,0.958,4.026,2.478s0.614,3.341-0.396,4.712l-52.32,70.935
				C289.386,337.738,288.039,338.419,286.606,338.419z M70.385,329.396h213.943l45.666-61.913H116.049L70.385,329.396z" id="id_103" style="fill: rgb(140, 73, 51);"></path>
		</g>
		<g>
			<path d="M450.549,338.419h-64.451c-1.511,0-2.92-0.756-3.756-2.014L335.17,265.47c-0.92-1.384-1.005-3.163-0.22-4.629
				c0.786-1.465,2.313-2.38,3.977-2.38h63.981c1.503,0,2.907,0.748,3.745,1.996l47.641,70.936c0.929,1.384,1.02,3.166,0.235,4.637
				C453.746,337.5,452.215,338.419,450.549,338.419z M388.516,329.396h53.569l-41.581-61.913h-53.16L388.516,329.396z" id="id_104" style="fill: rgb(140, 69, 45);"></path>
		</g>
		<g>
			<path d="M168.071,235.688c-2.083,0-3.955-1.451-4.408-3.57c-8.513-39.869-33.722-65.843-79.335-81.741
				c-2.353-0.82-3.595-3.392-2.775-5.745c0.82-2.353,3.392-3.595,5.744-2.775c48.214,16.804,76.08,45.713,85.189,88.377
				c0.52,2.436-1.033,4.833-3.47,5.354C168.7,235.655,168.383,235.688,168.071,235.688z" id="id_105" style="fill: rgb(138, 68, 44);"></path>
		</g>
		<g>
			<path d="M83.214,150.588c-1.125,0-2.251-0.418-3.127-1.26c-1.795-1.727-1.851-4.583-0.124-6.379l18.642-19.381
				c1.728-1.794,4.583-1.851,6.378-0.124c1.796,1.727,1.852,4.583,0.124,6.379l-18.642,19.381
				C85.581,150.124,84.398,150.588,83.214,150.588z" id="id_106" style="fill: rgb(140, 63, 38);"></path>
		</g>
		<g>
			<path d="M89.986,177.009c-2.011,0-3.844-1.354-4.367-3.392l-6.774-26.421c-0.619-2.414,0.836-4.872,3.25-5.49
				c2.415-0.621,4.871,0.835,5.49,3.25l6.774,26.421c0.619,2.414-0.836,4.872-3.25,5.49
				C90.734,176.964,90.357,177.009,89.986,177.009z" id="id_107" style="fill: rgb(143, 68, 43);"></path>
		</g>
		<g>
			<path d="M248.517,235.687c-2.491,0-4.511-2.02-4.511-4.511V105.441c0-2.491,2.02-4.511,4.511-4.511
				c2.492,0,4.511,2.02,4.511,4.511v125.734C253.028,233.667,251.008,235.687,248.517,235.687z" id="id_108" style="fill: rgb(143, 70, 46);"></path>
		</g>
		<g>
			<path d="M223.578,126.189c-1.475,0-2.92-0.722-3.785-2.051c-1.359-2.088-0.768-4.883,1.32-6.242l24.943-16.236
				c2.089-1.359,4.883-0.768,6.242,1.32c1.359,2.088,0.769,4.883-1.32,6.242l-24.943,16.237
				C225.275,125.953,224.421,126.189,223.578,126.189z" id="id_109" style="fill: rgb(140, 69, 45);"></path>
		</g>
		<g>
			<path d="M273.448,126.189c-0.844,0-1.696-0.236-2.457-0.731l-24.936-16.237c-2.088-1.359-2.678-4.154-1.319-6.242
				c1.359-2.088,4.153-2.68,6.242-1.319l24.937,16.236c2.087,1.36,2.679,4.154,1.318,6.242
				C276.368,125.467,274.924,126.189,273.448,126.189z" id="id_110" style="fill: rgb(140, 66, 42);"></path>
		</g>
		<g>
			<path d="M191.021,171.316c-2.287,0-4.246-1.731-4.483-4.055c-3.959-38.882-29.847-65.449-79.142-81.219
				c-2.373-0.759-3.681-3.298-2.922-5.671c0.759-2.373,3.3-3.681,5.671-2.922c52.345,16.745,81.067,46.655,85.369,88.898
				c0.252,2.479-1.552,4.692-4.031,4.945C191.328,171.308,191.173,171.316,191.021,171.316z" id="id_111" style="fill: rgb(143, 68, 43);"></path>
		</g>
		<g>
			<path d="M108.77,86.256c-1.125,0-2.251-0.418-3.126-1.26c-1.796-1.727-1.852-4.583-0.124-6.378l18.635-19.375
				c1.728-1.796,4.583-1.851,6.378-0.125c1.796,1.727,1.852,4.583,0.124,6.378l-18.635,19.376
				C111.136,85.793,109.954,86.256,108.77,86.256z" id="id_112" style="fill: rgb(140, 66, 42);"></path>
		</g>
		<g>
			<path d="M115.536,112.684c-2.011,0-3.845-1.354-4.367-3.393L104.4,82.865c-0.618-2.414,0.837-4.872,3.251-5.49
				c2.415-0.617,4.872,0.838,5.49,3.251l6.769,26.426c0.618,2.414-0.837,4.872-3.251,5.49
				C116.283,112.638,115.906,112.684,115.536,112.684z" id="id_113" style="fill: rgb(140, 62, 36);"></path>
		</g>
		<g>
			<path d="M342.709,235.688c-0.312,0-0.628-0.033-0.945-0.1c-2.438-0.521-3.99-2.917-3.471-5.354
				c9.102-42.661,36.965-71.569,85.182-88.377c2.351-0.822,4.924,0.421,5.745,2.774c0.819,2.353-0.423,4.925-2.775,5.745
				c-45.615,15.901-70.821,41.875-79.328,81.741C346.664,234.236,344.792,235.688,342.709,235.688z" id="id_114" style="fill: rgb(143, 63, 36);"></path>
		</g>
		<g>
			<path d="M427.561,150.588c-1.184,0-2.366-0.463-3.252-1.384l-18.642-19.381c-1.727-1.796-1.672-4.652,0.124-6.379
				c1.796-1.728,4.65-1.671,6.379,0.124l18.642,19.381c1.727,1.796,1.671,4.652-0.125,6.379
				C429.812,150.169,428.686,150.588,427.561,150.588z" id="id_115" style="fill: rgb(140, 61, 35);"></path>
		</g>
		<g>
			<path d="M420.796,177.009c-0.371,0-0.747-0.045-1.123-0.142c-2.414-0.619-3.87-3.076-3.251-5.49l6.768-26.421
				c0.619-2.414,3.08-3.868,5.489-3.251c2.414,0.619,3.87,3.076,3.251,5.49l-6.768,26.421
				C424.64,175.655,422.807,177.009,420.796,177.009z" id="id_116" style="fill: rgb(138, 59, 33);"></path>
		</g>
		<g>
			<path d="M319.761,171.316c-0.152,0-0.307-0.008-0.462-0.023c-2.479-0.252-4.284-2.466-4.032-4.944
				c4.294-42.244,33.017-72.154,85.369-88.899c2.379-0.76,4.912,0.55,5.672,2.922c0.759,2.374-0.55,4.912-2.923,5.671
				c-49.303,15.77-75.19,42.337-79.141,81.218C324.008,169.584,322.047,171.316,319.761,171.316z" id="id_117" style="fill: rgb(138, 58, 32);"></path>
		</g>
		<g>
			<path d="M402.012,86.256c-1.185,0-2.366-0.463-3.252-1.383l-18.644-19.375c-1.728-1.795-1.673-4.651,0.123-6.379
				s4.652-1.672,6.378,0.123l18.644,19.375c1.728,1.795,1.673,4.651-0.122,6.379C404.264,85.838,403.137,86.256,402.012,86.256z" id="id_118" style="fill: rgb(143, 66, 40);"></path>
		</g>
		<g>
			<path d="M395.239,112.684c-0.371,0-0.748-0.046-1.124-0.142c-2.414-0.619-3.868-3.077-3.25-5.49l6.774-26.427
				c0.619-2.414,3.08-3.871,5.49-3.25c2.415,0.619,3.869,3.077,3.251,5.49l-6.775,26.427
				C399.083,111.33,397.25,112.684,395.239,112.684z" id="id_119" style="fill: rgb(138, 57, 30);"></path>
		</g>
	</g>
</g>
<g id="Layer_1">
</g>
</svg>