<svg xmlns="http://www.w3.org/2000/svg" version="1.1" xmlns:xlink="http://www.w3.org/1999/xlink" xmlns:svgjs="http://svgjs.dev/svgjs" width="1000" height="1000" viewBox="0 0 1000 1000"><rect width="1000" height="1000" fill="#884a39"></rect><g transform="matrix(0.7,0,0,0.7,149.57575757575756,387.89976561162325)"><svg viewBox="0 0 396 127" data-background-color="#884a39" preserveAspectRatio="xMidYMid meet" height="320" width="1000" xmlns="http://www.w3.org/2000/svg" xmlns:xlink="http://www.w3.org/1999/xlink"><g id="tight-bounds" transform="matrix(1,0,0,1,0.2400000000000091,0.05682931841002414)"><svg viewBox="0 0 395.52 126.88628795296034" height="126.88628795296034" width="395.52"><g><svg viewBox="0 0 680.9442973274377 218.45290804666135" height="126.88628795296034" width="395.52"><g transform="matrix(1,0,0,1,285.42429732743767,38.30502482174268)"><svg viewBox="0 0 395.52 141.842858403176" height="141.842858403176" width="395.52"><g id="textblocktransform"><svg viewBox="0 0 395.52 141.842858403176" height="141.842858403176" width="395.52" id="textblock"><g><svg viewBox="0 0 395.52 141.842858403176" height="141.842858403176" width="395.52"><g transform="matrix(1,0,0,1,0,0)"><svg width="395.52" viewBox="2 -38.22999954223633 112.83000183105469 39.689998626708984" height="141.842858403176" data-palette-color="#f9e0bb"><g class="wordmark-text-0" data-fill-palette-color="primary" id="text-0"><path d="M20.61-2.2L20.61-2.2 21.09 0Q19.19 0 14.18 0.17 9.18 0.34 6.93 0.34L6.93 0.34Q3.32 0.34 2 0L2 0Q2.49-5.37 2.59-17.97 2.69-30.57 3.22-35.55L3.22-35.55Q4.88-35.4 12.04-35.3 19.19-35.21 21.39-34.86L21.39-34.86 21.92-32.67Q19.73-32.28 13.13-31.74 6.54-31.2 6.2-31.15L6.2-31.15Q6.25-30.03 6.42-26.56 6.59-23.1 6.64-20.85L6.64-20.85Q8.3-20.65 12.7-20.29 17.09-19.92 18.26-19.82L18.26-19.82 18.75-17.58Q8.45-16.65 6.69-16.6L6.69-16.6Q6.69-14.45 6.62-10.08 6.54-5.71 6.54-3.66L6.54-3.66Q17.72-2.64 20.61-2.2ZM28.17 0.93L28.17 0.93 25.44 1.46 24.85-37.11Q26.22-37.79 28.56-38.23L28.56-38.23Q28.51-37.11 28.51-34.72L28.51-34.72Q28.51-29.44 28.9-24.27L28.9-24.27Q31.25-25.59 33.88-25.59L33.88-25.59Q36.62-25.59 38.52-24.29 40.43-23 41.35-20.75 42.28-18.51 42.67-16.21 43.06-13.92 43.06-11.23L43.06-11.23Q43.06-8.3 42.16-5.59 41.26-2.88 39.04-0.85 36.81 1.17 33.64 1.17L33.64 1.17Q30.91 1.17 28.22-0.54L28.22-0.54Q28.17-0.05 28.17 0.93ZM28.76-19.48L28.76-19.48 28.61-3.76Q28.9-2.88 30.44-2.37 31.98-1.86 33.79-1.86L33.79-1.86Q35.5-1.86 36.64-2.51 37.79-3.17 38.38-4.42 38.96-5.66 39.18-7.03 39.4-8.4 39.4-10.16L39.4-10.16Q39.4-11.96 39.21-13.7 39.01-15.43 38.43-17.5 37.84-19.58 36.52-20.85 35.2-22.12 33.25-22.12L33.25-22.12Q31.83-22.12 30.59-21.41 29.34-20.7 28.76-19.48ZM50.34-19.53L50.34-19.53 50.53-0.2Q49.8 0.2 48.77 0.2L48.77 0.2Q47.99 0.2 47.02-0.05L47.02-0.05Q47.16-3.13 47.21-12.16 47.26-21.19 47.6-25.54L47.6-25.54 49.8-25.05 49.95-22.31Q52.53-25.05 55.9-25.05L55.9-25.05Q57.61-25.05 58.64-24.8 59.66-24.56 60.62-23.61 61.57-22.66 62.06-21.09 62.54-19.53 62.93-16.63 63.33-13.72 63.5-9.84 63.67-5.96 63.72-0.05L63.72-0.05Q63.42 0.05 62.59 0.05L62.59 0.05Q60.83 0.05 59.86-0.39L59.86-0.39Q59.66-1.17 59.66-2.98L59.66-2.98Q59.66-3.91 59.74-6.47 59.81-9.03 59.81-10.45L59.81-10.45Q59.81-12.79 59.64-14.55 59.47-16.31 59-18.02 58.54-19.73 57.59-20.65 56.64-21.58 55.22-21.58L55.22-21.58Q53.61-21.58 52.7-21.34 51.8-21.09 51.44-20.75 51.07-20.41 50.34-19.53ZM68.74-25.1L68.74-25.1 70.99-24.61Q71.38-20.61 71.67-12.04 71.97-3.47 72.06-1.42L72.06-1.42Q71.62 0.1 70.35 0.1L70.35 0.1Q69.47 0.1 68.67-0.61 67.86-1.32 67.67-2.34L67.67-2.34Q67.77-4.35 68.06-12.77 68.35-21.19 68.74-25.1ZM69.43-33.84L69.43-33.84Q70.74-33.84 71.62-32.69 72.5-31.54 72.5-30.08L72.5-30.08Q72.5-29 71.99-28.34 71.48-27.69 70.6-27.69L70.6-27.69Q69.23-27.69 68.45-28.81 67.67-29.93 67.67-31.45L67.67-31.45Q67.67-32.52 68.13-33.18 68.6-33.84 69.43-33.84ZM89.83-23.63L89.83-23.63 90.37-21.44Q89.05-21.34 86.32-20.92 83.58-20.51 82.22-20.41L82.22-20.41Q82.46-18.7 82.51-15.92 82.56-13.13 82.63-11.11 82.7-9.08 83.07-7.06 83.44-5.03 84.58-3.96 85.73-2.88 87.69-2.88L87.69-2.88Q89.15-2.88 91.35-3.56L91.35-3.56Q92.28-1.76 92.71-0.93L92.71-0.93Q88.86 0.44 84.9 0.44L84.9 0.44Q83.44 0.44 82.36-0.44 81.29-1.32 80.7-2.64 80.12-3.96 79.75-5.98 79.38-8.01 79.29-9.81 79.19-11.62 79.19-13.96L79.19-13.96Q79.19-15.23 79.21-17.48 79.24-19.73 79.24-20.56L79.24-20.56Q78.75-20.51 76.94-20.48 75.14-20.46 74.84-20.46L74.84-20.46Q74.5-23.73 74.5-23.83L74.5-23.83Q74.84-23.73 75.62-23.73L75.62-23.73Q76.06-23.73 77.04-23.8 78.02-23.88 78.51-23.88L78.51-23.88Q78.7-23.88 79.02-23.85 79.34-23.83 79.43-23.83L79.43-23.83Q79.63-29.2 79.87-32.57L79.87-32.57 82.07-32.03Q82.12-30.86 82.14-29.52 82.17-28.17 82.19-26.54 82.22-24.9 82.22-24.02L82.22-24.02Q83.49-23.93 86.03-23.83 88.56-23.73 89.83-23.63ZM114.34-4.74L114.34-4.74 114.83-2.59Q112.68-1.81 108.46-0.85 104.24 0.1 102.18 0.1L102.18 0.1Q100.09 0.1 98.52-1.29 96.96-2.69 96.18-4.86 95.4-7.03 95.03-9.16 94.67-11.28 94.67-13.33L94.67-13.33Q94.67-25.54 105.7-25.54L105.7-25.54Q108.34-25.54 110.34-23.85 112.34-22.17 112.34-19.48L112.34-19.48Q112.34-18.02 111.54-16.89 110.73-15.77 109.58-15.11 108.43-14.45 106.65-13.92 104.87-13.38 103.5-13.13 102.14-12.89 100.23-12.6 98.33-12.3 97.59-12.16L97.59-12.16Q97.64-10.74 97.77-9.67 97.89-8.59 98.25-7.35 98.62-6.1 99.23-5.3 99.84-4.49 100.92-3.96 101.99-3.42 103.45-3.42L103.45-3.42Q105.21-3.42 107.75-3.74 110.29-4.05 112.27-4.39 114.25-4.74 114.34-4.74ZM97.79-15.19L97.79-15.19Q104.43-17.09 108.68-19.19L108.68-19.19Q108.34-20.8 107.75-21.53 107.17-22.27 105.99-22.27L105.99-22.27Q103.01-22.27 100.6-20.21 98.18-18.16 97.79-15.19Z" fill="#f9e0bb" data-fill-palette-color="primary"></path></g></svg></g></svg></g></svg></g></svg></g><g><svg viewBox="0 0 218.45290804666135 218.45290804666135" height="218.45290804666135" width="218.45290804666135"><g><svg></svg></g><g id="icon-0"><svg viewBox="0 0 218.45290804666135 218.45290804666135" height="218.45290804666135" width="218.45290804666135"><g><path d="M0 109.226c0-60.324 48.902-109.226 109.226-109.226 60.324 0 109.226 48.902 109.227 109.226 0 60.324-48.902 109.226-109.227 109.227-60.324 0-109.226-48.902-109.226-109.227zM109.226 205.661c53.26 0 96.435-43.175 96.435-96.435 0-53.26-43.175-96.435-96.435-96.434-53.26 0-96.435 43.175-96.434 96.434 0 53.26 43.175 96.435 96.434 96.435z" data-fill-palette-color="accent" fill="#c38154" stroke="transparent"></path></g><g transform="matrix(1,0,0,1,54.16568344560959,68.13908662942099)"><svg viewBox="0 0 110.12154115544217 82.17473478781938" height="82.17473478781938" width="110.12154115544217"><g><svg xmlns="http://www.w3.org/2000/svg" xmlns:xlink="http://www.w3.org/1999/xlink" version="1.1" x="0" y="0" viewBox="19.799999237060547 27.699995040893555 60.30405044555664 45" enable-background="new 0 0 100 100" xml:space="preserve" height="82.17473478781938" width="110.12154115544217" class="icon-s-0" data-fill-palette-color="accent" id="s-0"><g fill="#c38154" data-fill-palette-color="accent"><path fill="#c38154" d="M71.2 62.3c-0.5 0-0.9-0.3-1-0.8-0.1-0.6 0.2-1.1 0.8-1.2 1.1-0.2 2.2-0.6 3.2-1.1 0.7-0.3 1.4-0.7 2.1-1.2C70 57.5 64.4 53.7 61.7 48c-2.7-5.8-2-12.5 1.6-17.6-0.8 0.2-1.5 0.5-2.2 0.8-4.4 2.1-7.5 6-8.6 10.7-0.1 0.6-0.7 0.9-1.2 0.8-0.6-0.1-0.9-0.7-0.8-1.2 1.2-5.4 4.7-9.8 9.7-12.2 1.8-0.8 3.7-1.4 5.7-1.6 0.4 0 0.9 0.2 1 0.6 0.2 0.4 0.1 0.9-0.2 1.2-4.7 4.6-5.9 11.6-3.2 17.5 2.8 5.9 9 9.5 15.5 8.8 0.4 0 0.9 0.2 1 0.6 0.2 0.4 0.1 0.9-0.2 1.2-1.4 1.4-3.1 2.5-4.9 3.4-1.2 0.5-2.4 1-3.6 1.2C71.3 62.3 71.2 62.3 71.2 62.3z" data-fill-palette-color="accent"></path></g><g fill="#c38154" data-fill-palette-color="accent"><path fill="#c38154" d="M58.8 72.7h-30c-5 0-9-4-9-9s4-9 9-9c0.2 0 0.3 0 0.5 0C30.8 48 36.8 43 43.8 43s13 4.9 14.5 11.7c0.2 0 0.4 0 0.5 0 5 0 9 4 9 9S63.8 72.7 58.8 72.7zM28.8 56.8c-3.8 0-6.9 3.1-6.9 6.9s3.1 6.9 6.9 6.9h30c3.8 0 6.9-3.1 6.9-6.9s-3.1-6.9-6.9-6.9c-0.4 0-0.8 0-1.2 0.1-0.3 0-0.6 0-0.8-0.2-0.2-0.2-0.4-0.4-0.4-0.7-0.9-6.2-6.3-10.9-12.6-10.9-6.3 0-11.7 4.7-12.6 10.9 0 0.3-0.2 0.5-0.4 0.7-0.2 0.2-0.5 0.2-0.8 0.2C29.6 56.8 29.2 56.8 28.8 56.8z" data-fill-palette-color="accent"></path></g></svg></g></svg></g></svg></g></svg></g></svg></g><defs></defs></svg><rect width="395.52" height="126.88628795296034" fill="none" stroke="none" visibility="hidden"></rect></g></svg></g></svg>